<?xml version="1.0" encoding="utf-8"?>
<!-- Generator: Adobe Illustrator 24.0.0, SVG Export Plug-In . SVG Version: 6.00 Build 0)  -->
<svg version="1.1" id="Layer_1" xmlns="http://www.w3.org/2000/svg" xmlns:xlink="http://www.w3.org/1999/xlink" x="0px" y="0px"
	 viewBox="0 0 228.7 39.1" style="enable-background:new 0 0 228.7 39.1;" xml:space="preserve">
<style type="text/css">
	.st0{fill:#FFDE00;}
	.st1{fill:#FFFFFF;}
</style>
<g>
	<g>
		<path class="st0" d="M138.8,38.7l5.9-23.9l9.8-0.1l-5.9,24H138.8z"/>
		<path class="st0" d="M111.3,38.7l8.6-36.5h21.6l-1.8,7.9l-11.9,0.1l-1.5,6.3l11.1-0.1l-1.7,7.1l-11.2,0.1L121,38.7H111.3z"/>
		<path class="st0" d="M181,11.7c-0.5-0.1-1-0.2-1.5-0.5c-1.5-0.7-2.7-1.7-3.7-3c-0.5-0.6-0.8-1.3-1.1-2l-3.6,6.9l-0.5-11h-10.8
			l3.8,18l-12.9,18.5h10.5l6.3-11.2l1.1,11.2h10.6l-4-18.7L181,11.7z"/>
		<path class="st0" d="M184.5,7.2c-0.5-0.1-1.3,1.1-2,1.6c-1.8,1.1-3.9,0.6-4.9-1.2c-0.6-1.1-0.5-2,0.4-2.8c0.8-0.8,1.6-1.6,2.5-2.4
			c-0.3-0.2-2.5-0.5-3.2-0.4c-1.6,0.2-2.9,0.9-3.7,2.4c-0.5,1.1-0.6,2.2-0.5,3.3c0,0.9,0.2,1.8,0.2,2.7c-0.1,1.5-0.9,2.7-1.8,3.8
			c-3.4,4.7-6.8,9.4-10.3,14.2c0.5,0.3,0.9,0.7,1.1,1.2c0.2,0.1,0.3,0.2,0.5,0.3c0.2,0.1,0.4,0.2,0.6,0.3c0.3-0.2,0.6-0.3,0.9-0.6
			c0.6-0.4,1.2-0.6,1.9-0.6c3-4.1,5.9-8.1,8.8-12.2c0.3-0.4,0.5-0.8,0.9-1.1c1-1,2-1.8,3.5-1.7c1.3,0,2.5-0.5,3.5-1.5
			c1.3-1.2,1.8-2.8,2.2-4.5C185,7.6,185,7.3,184.5,7.2z"/>
		<g>
			<path class="st0" d="M145.6,1.7c0.8-0.4,1.6-0.9,2.5-1.3c0.1,0.2,0.3,0.5,0.4,0.7c0.1,0.1,0.2,0.3,0.2,0.4
				c0.1,0.4,0.4,0.6,0.8,0.5c0.5,0,1.1,0,1.6,0c0.2,0,0.3,0,0.4-0.2c0.3-0.5,0.5-0.9,0.8-1.4c0.8,0.5,1.6,1,2.4,1.5
				c-0.3,0.4-0.5,0.9-0.8,1.3c-0.1,0.2-0.1,0.3,0,0.5c0.3,0.6,0.6,1.2,1,1.8c0,0.1,0.2,0.1,0.3,0.1c0.5,0,1.1,0,1.6,0.1
				c0,0.9-0.1,1.9-0.1,2.8c-0.6,0-1.1,0-1.6,0c-0.2,0-0.3,0-0.4,0.2c-0.3,0.6-0.7,1.1-1,1.6c-0.1,0.1-0.1,0.2,0,0.4
				c0.3,0.5,0.5,0.9,0.8,1.4c-0.8,0.4-1.6,0.9-2.5,1.3c-0.3-0.5-0.5-0.9-0.7-1.4c-0.1-0.2-0.2-0.3-0.5-0.3c-0.6,0-1.3,0-1.9,0
				c-0.1,0-0.3,0.1-0.3,0.2c-0.3,0.4-0.6,0.9-0.9,1.4c-0.8-0.5-1.6-1-2.4-1.5c0.3-0.5,0.6-0.9,0.8-1.4c0.1-0.2,0.1-0.3,0-0.4
				c-0.3-0.6-0.6-1.2-0.9-1.7c-0.1-0.1-0.2-0.2-0.3-0.2c-0.5,0-1.1,0-1.6-0.1c0-0.9,0.1-1.9,0.1-2.8c0.5,0,1,0,1.6,0
				c0.2,0,0.3-0.1,0.5-0.2c0.3-0.5,0.7-1.1,1-1.6c0.1-0.1,0.1-0.2,0-0.4C146.1,2.7,145.9,2.2,145.6,1.7z M150.7,8.6
				c0.9-0.4,1.4-1.4,1-2.4c-0.4-0.9-1.4-1.4-2.3-1c-0.9,0.4-1.4,1.4-1,2.4C148.7,8.5,149.7,9,150.7,8.6z"/>
		</g>
	</g>
	<path class="st0" d="M91.9,28.1l1.9-7.9h16l-1.9,7.9H91.9z"/>
	<path class="st1" d="M69.1,10.2l2-8h23.8l-2,8H86l-7.1,28.5h-9.6l7.1-28.5C76.4,10.2,69.1,10.2,69.1,10.2z"/>
	<path class="st1" d="M61.3,13.2c-2.4,9.5-3.9,16-6.3,25.5h-9.6c2.4-9.5,3.9-16,6.3-25.5C54.8,13.2,58.1,13.2,61.3,13.2z"/>
	<path class="st1" d="M61.9,10.2c0.6-2.5,1.5-5.5,2.2-8h-9.6c-0.6,2.5-1.5,5.5-2.1,8C55.5,10.2,58.7,10.1,61.9,10.2z"/>
</g>
</svg>
